<?xml version="1.0" encoding="utf-8"?>
<!-- Generator: Adobe Illustrator 22.0.0, SVG Export Plug-In . SVG Version: 6.00 Build 0)  -->
<svg version="1.1" id="Layer_1" xmlns="http://www.w3.org/2000/svg" xmlns:xlink="http://www.w3.org/1999/xlink" x="0px" y="0px"
	 viewBox="0 0 1920 1080" style="enable-background:new 0 0 1920 1080;" xml:space="preserve">
<style type="text/css">
	.st0{fill:#F1F0F7;}
</style>
<path class="st0" d="M1920,842V40c-60.4-3.2-155.7-2.5-267,26c-99.2,25.4-110.6,47.1-248,89c-123.8,37.7-203.1,61-304,48
	c-76.1-9.8-77.5-29.1-159-42c-116.6-18.5-211.1,5.5-277,23c-173.9,46.1-203.9,106.6-385,178c-73,28.8-166.2,57.7-280,75v611
	c223.6-9.3,397.8-47.3,517-81c216-61.1,344.7-134.4,558-114c105.7,10.1,121.2,32.6,231,53C1442.4,931.3,1646.4,938.9,1920,842z"/>
</svg>
