<?xml version="1.0" standalone="no"?><svg xmlns="http://www.w3.org/2000/svg" viewBox="0 0 1440 320"><path fill="#fff" fill-opacity="1" d="M0,160L26.7,186.7C53.3,213,107,267,160,272C213.3,277,267,235,320,229.3C373.3,224,427,256,480,272C533.3,288,587,288,640,282.7C693.3,277,747,267,800,261.3C853.3,256,907,256,960,250.7C1013.3,245,1067,235,1120,208C1173.3,181,1227,139,1280,144C1333.3,149,1387,203,1413,229.3L1440,256L1440,320L1413.3,320C1386.7,320,1333,320,1280,320C1226.7,320,1173,320,1120,320C1066.7,320,1013,320,960,320C906.7,320,853,320,800,320C746.7,320,693,320,640,320C586.7,320,533,320,480,320C426.7,320,373,320,320,320C266.7,320,213,320,160,320C106.7,320,53,320,27,320L0,320Z"></path></svg>